PathFileType	4	(X/Y/Z)	C:\Users\Basilio\Documents\Thesis Gigler\squatting_fais\c3dfiles\073\SLS_back_pre4\markers_experimental.trc
DataRate	CameraRate	NumFrames	NumMarkers	Units	OrigDataRate	OrigDataStartFrame	OrigNumFrames
200.000000	200.000000	4	61	mm	200.000000	670	1341
Frame#	Time	FHD			LBHD			RBHD			C7			T10			CLAV			LSHO			LUUPA			LMUPA			LDUPA			LLEP			LMEP			LRAD			LUL			LRFIN			RSHO			RUPA1			RMUPA			RDUPA			RLEP			RMEP			RUL			RUFIN			LASI			RASI			USACR			LSACR			RSACR			LTHI1			LTHI2			LTHI3			LTHI4			LLFC			LTIB1			LTIB2			LTIB3			LTIB4			LLMAL			LMMAL			LHEE			LMT1			LMT2			LMT5			RTHI			RTHI2			RTHI3			RTHI4			RLFC			RMFC			RTIB1			RTIB2			RTIB3			RTIB4			RLMAL			RMMAL			RHEE			RMT1			RMT2			RMT5			LMFC			RRAD			
		X1	Y1	Z1	X2	Y2	Z2	X3	Y3	Z3	X4	Y4	Z4	X5	Y5	Z5	X6	Y6	Z6	X7	Y7	Z7	X8	Y8	Z8	X9	Y9	Z9	X10	Y10	Z10	X11	Y11	Z11	X12	Y12	Z12	X13	Y13	Z13	X14	Y14	Z14	X15	Y15	Z15	X16	Y16	Z16	X17	Y17	Z17	X18	Y18	Z18	X19	Y19	Z19	X20	Y20	Z20	X21	Y21	Z21	X22	Y22	Z22	X23	Y23	Z23	X24	Y24	Z24	X25	Y25	Z25	X26	Y26	Z26	X27	Y27	Z27	X28	Y28	Z28	X29	Y29	Z29	X30	Y30	Z30	X31	Y31	Z31	X32	Y32	Z32	X33	Y33	Z33	X34	Y34	Z34	X35	Y35	Z35	X36	Y36	Z36	X37	Y37	Z37	X38	Y38	Z38	X39	Y39	Z39	X40	Y40	Z40	X41	Y41	Z41	X42	Y42	Z42	X43	Y43	Z43	X44	Y44	Z44	X45	Y45	Z45	X46	Y46	Z46	X47	Y47	Z47	X48	Y48	Z48	X49	Y49	Z49	X50	Y50	Z50	X51	Y51	Z51	X52	Y52	Z52	X53	Y53	Z53	X54	Y54	Z54	X55	Y55	Z55	X56	Y56	Z56	X57	Y57	Z57	X58	Y58	Z58	X59	Y59	Z59	X60	Y60	Z60	X61	Y61	Z61	

671	3.35	27.57983589172364	1250.314208984375	-761.3651123046876	-107.5688629150391	1228.937133789063	-790.1723632812502	-136.1591796875	1213.521240234375	-657.7098999023439	-166.0071716308594	1147.629638671875	-723.2349853515626	-400.8558349609376	926.3927001953127	-748.2767944335939	-88.32153320312501	1013.434753417969	-720.0115966796876	-88.46441650390626	1091.325317382813	-848.9868164062502	-22.30467605590821	1014.668273925781	-950.010925292969	19.88544464111328	1023.741943359375	-924.580749511719	34.21220397949219	977.0538330078127	-960.8347167968752	132.3419342041016	933.8242797851565	-962.7950439453127	118.8674392700196	878.3631591796877	-920.5316162109377	386.696014404297	927.5730590820315	-837.239440917969	393.7207946777345	922.3482666015627	-911.3369140625002	468.8159484863282	926.5122070312502	-825.5847778320315	-86.23415374755861	1076.999755859375	-589.1563720703126	-24.74762725830079	974.4827880859377	-478.3500976562501	17.91735267639161	988.1082763671877	-495.0928039550782	32.17048645019532	935.6990356445315	-469.9714965820314	120.9187545776367	904.426452636719	-467.0871887207032	112.2668533325196	850.5848388671877	-529.9133300781251	384.9907531738282	926.6697998046877	-511.8556213378907	464.9773864746095	939.8132934570315	-589.7897949218751	-366.9771728515626	693.5591430664064	-856.057312011719	-360.2211914062501	738.1304931640626	-618.5251464843751	-496.8275146484376	848.2769775390627	-744.7158813476564	-520.0983276367189	823.803894042969	-768.1370849609377	-525.3668823242189	835.006530761719	-712.4640502929689	-417.2152404785157	393.9866943359376	-889.598815917969	-379.5330200195313	320.3388977050782	-865.6135864257815	-339.9006652832032	327.3561096191407	-837.4446411132815	-409.8270263671876	270.2810363769532	-853.6126708984377	-420.700897216797	227.9082336425782	-852.9038085937502	-594.2412109375001	170.8366088867188	-806.4674072265627	-628.9352416992189	222.4105529785157	-867.228454589844	-638.1872558593751	186.4459686279297	-843.3679199218752	-718.3867187500001	192.6957244873047	-816.6756591796877	-830.9206542968752	255.8042907714844	-857.392272949219	-811.8277587890627	253.2193603515626	-769.9404296875002	-853.508483886719	324.1652526855469	-823.5151367187502	-898.8126220703127	112.2323989868164	-757.7419433593751	-896.7584228515627	104.6702194213867	-795.141052246094	-915.0009765625002	135.66650390625	-852.8051757812502	-336.7354736328126	598.5341796875001	-547.0422363281251	-271.6239013671876	591.5616455078126	-559.7722778320314	-252.7985076904297	617.3945922851564	-568.3512573242189	-231.7637786865235	521.2163085937501	-581.8947753906251	-135.4449462890625	436.9035034179689	-629.1612548828126	-147.4498596191407	445.0310668945314	-753.6431274414064	-170.4227752685547	295.7908935546876	-735.9971313476564	-222.4688262939454	226.7088928222657	-670.9763183593751	-208.5932159423829	220.0597534179688	-715.3659667968751	-252.8800811767579	196.1989135742188	-746.5122680664064	-350.0728149414063	94.32139587402345	-690.2111206054689	-343.2860717773438	126.6166458129883	-777.0443115234377	-430.137176513672	81.76202392578126	-744.3814086914064	-205.7589721679688	55.1146583557129	-761.5392456054689	-205.8527221679688	51.9938201904297	-720.0587158203126	-248.4997253417969	35.08491897583009	-671.3929443359376	-434.1672973632814	236.644027709961	-715.6514282226564	373.6546020507813	919.1746215820315	-585.3101806640626	
672	3.355	27.67975425720216	1250.365356445313	-761.3696289062501	-107.5326385498047	1228.987182617188	-790.139587402344	-136.1067962646485	1213.523681640625	-657.7204589843751	-165.9476928710938	1147.642822265625	-723.1557617187501	-400.8366088867189	926.4492797851565	-748.2504882812501	-88.32153320312501	1013.434753417969	-720.0115966796876	-88.44662475585939	1091.406005859375	-848.9602661132815	-22.30047416687012	1014.81005859375	-950.0260009765627	19.91005897521973	1023.820434570313	-924.6253051757815	34.19994354248048	977.186218261719	-960.8428955078127	132.3916015625	933.9672851562502	-962.9125976562502	118.8533020019532	878.445983886719	-920.6529541015627	386.7310791015626	927.7510375976565	-837.4294433593752	393.7075195312501	922.5510253906252	-911.456237792969	468.8519592285157	926.7103271484377	-825.719909667969	-86.14888000488283	1076.971435546875	-589.1207275390626	-24.57491302490235	974.461364746094	-478.3272705078126	18.07637596130371	988.0159912109377	-495.5153198242189	32.27904891967774	935.6403808593752	-470.0397338867189	121.0450668334961	904.3717041015627	-467.2415771484376	112.3570251464844	850.5610351562502	-530.0479736328126	385.065399169922	926.7077636718752	-511.951629638672	465.0796813964845	939.9588012695315	-590.0018920898439	-366.9162597656251	693.6287231445314	-856.0173950195315	-360.1178894042969	738.3449707031251	-618.5029907226564	-496.8356933593751	848.3571777343752	-744.7190551757814	-520.1140747070314	823.8200683593752	-768.1020507812502	-525.3762817382814	835.0291137695315	-712.4249877929689	-417.1181640625001	394.0383605957032	-889.7060546875002	-379.3112182617188	320.4099426269532	-865.6404418945315	-339.7115478515626	327.5141906738282	-837.4412841796877	-409.6343078613282	270.3347167968751	-853.6170043945315	-420.4087524414064	228.0086822509766	-852.9028320312502	-593.9227905273439	170.7247161865235	-806.445495605469	-628.6571655273439	222.3487396240235	-867.3132324218752	-637.7993164062501	186.3555603027344	-843.351989746094	-718.1029663085939	192.6276397705079	-816.6504516601565	-830.669616699219	255.6361846923829	-857.4908447265627	-811.5802001953127	253.094955444336	-769.948669433594	-853.3357543945315	323.9372253417969	-823.617614746094	-898.4383544921877	112.0471496582032	-757.7422485351564	-896.314392089844	104.4541015625	-795.1563110351565	-914.6460571289065	135.4076385498047	-852.7446899414065	-336.7671203613282	598.5806884765626	-546.9417724609376	-271.6472167968751	591.6069946289064	-559.6469116210939	-252.8300476074219	617.4194946289064	-568.2349243164064	-231.8117828369141	521.2570190429689	-581.7283325195314	-135.5122375488282	436.9188842773439	-628.9865112304689	-147.4252471923828	445.0948791503907	-753.4860229492189	-170.4529113769532	295.8370056152344	-735.8408203125001	-222.4978485107422	226.6987457275391	-670.8287353515626	-208.6360015869141	220.1063079833985	-715.1643676757814	-252.8426666259766	196.2924957275391	-746.3248901367189	-350.0729980468751	94.2302703857422	-690.1364746093751	-343.3212280273438	126.6361541748047	-776.9343261718752	-430.1599121093751	81.7453079223633	-744.3071289062501	-205.7253570556641	55.16073608398439	-761.4998779296876	-205.8455963134766	51.97959136962892	-720.0588378906251	-248.4740142822266	35.06868743896485	-671.3667602539064	-433.9148254394532	236.7368164062501	-715.6396484375001	373.7602233886719	919.2528076171877	-585.5307617187501	
673	3.36	27.54791831970216	1250.323608398438	-761.2977905273439	-107.4487380981446	1229.008911132813	-790.085144042969	-136.0377960205078	1213.4765625	-657.5933837890626	-165.9370727539063	1147.640625	-723.0944213867189	-400.7863769531251	926.535583496094	-748.1600952148439	-88.18162536621095	1013.467956542969	-720.0380859375001	-88.42786407470705	1091.445556640625	-848.942077636719	-22.2395076751709	1014.951416015625	-950.0826416015627	19.90985679626465	1023.988342285156	-924.5776977539065	34.14903259277344	977.3526611328127	-960.9414062500002	132.2871551513672	934.102478027344	-962.9812622070315	118.8754272460938	878.5676879882815	-920.8762817382815	386.7556457519532	927.9390258789065	-837.6250610351565	393.7984008789064	922.753845214844	-911.5774536132815	468.8471984863282	926.8909912109377	-825.9299316406252	-86.03936767578126	1076.948486328125	-589.1735839843751	-24.45794105529786	974.388122558594	-478.4238586425782	18.20339012145996	987.942565917969	-495.576141357422	32.4140968322754	935.5772094726565	-470.1185302734376	121.1919631958008	904.2938232421877	-467.3931884765626	112.5070724487305	850.5666503906252	-530.2660522460939	385.1981811523439	926.7391357421877	-512.0889282226564	465.2139282226564	940.1315917968752	-590.1796875000001	-366.9971618652344	693.6505126953126	-856.0092773437502	-360.0446472167969	738.4384155273439	-618.5139160156251	-496.8750000000001	848.4267578125002	-744.6598510742189	-520.0625610351564	823.8538818359377	-768.053649902344	-525.3227539062501	835.1163330078127	-712.4145507812501	-416.9877319335939	394.1564025878907	-889.541198730469	-379.1247863769532	320.5316772460938	-865.6350708007815	-339.4938354492188	327.6470947265626	-837.4445800781252	-409.3570251464845	270.4052124023438	-853.610290527344	-420.1015014648439	228.0823364257813	-852.9261474609377	-593.6004028320314	170.6895751953125	-806.5181274414065	-628.4683227539064	222.3513946533204	-867.3558349609377	-637.6188964843751	186.2995300292969	-843.3669433593752	-717.8327636718751	192.530746459961	-816.7146606445315	-830.4741210937502	255.5029907226563	-857.5718994140627	-811.3217773437502	252.9622344970704	-769.9908447265627	-853.159851074219	323.7253417968751	-823.6917724609377	-898.0806274414065	111.8330535888672	-757.7485351562501	-895.9614868164065	104.1978302001953	-795.1922607421877	-914.3130493164065	135.1920928955078	-852.7387695312502	-336.7989807128907	598.6577758789064	-546.8087158203126	-271.7028198242188	591.7000732421876	-559.4796142578126	-252.8636016845704	617.4900512695314	-568.1104125976564	-231.8560485839844	521.3092651367189	-581.5728759765626	-135.5701751708985	436.9593811035157	-628.7874145507814	-147.4889221191407	445.0850830078126	-753.1567993164064	-170.5133209228516	295.7893676757813	-735.5076293945314	-222.5357055664063	226.7022705078126	-670.7047119140626	-208.6448211669922	220.1270904541016	-715.0698242187501	-252.7897033691407	196.3359832763672	-746.2214355468751	-350.0590209960938	94.2322463989258	-690.0686645507814	-343.3086547851563	126.6711120605469	-776.8066406250002	-430.166473388672	81.7874221801758	-744.3074951171876	-205.7294311523438	55.17509078979494	-761.4819946289064	-205.8527984619141	51.95708465576173	-720.0440673828126	-248.4746551513672	35.03763961791993	-671.3634033203126	-433.6888122558595	236.8051300048829	-715.7381591796876	373.9196472167969	919.341735839844	-585.6326293945314	
674	3.365	27.70540237426759	1250.419677734375	-761.2783813476564	-107.5321044921875	1229.052490234375	-790.0010986328127	-135.9162292480469	1213.433349609375	-657.5258178710939	-165.8482513427735	1147.655395507813	-723.0421142578126	-400.7523498535157	926.5576171875002	-748.1168212890626	-88.19290924072267	1013.49609375	-720.0379028320314	-88.38145446777345	1091.503295898438	-848.8838500976565	-22.23863029479981	1015.067993164063	-950.0659179687502	19.88356971740723	1024.119384765625	-924.6604003906252	34.16809844970704	977.4633789062502	-960.9746704101565	132.267822265625	934.2298583984377	-963.144226074219	118.8547592163086	878.6479492187502	-921.0141601562502	386.7737121582032	928.1508789062502	-837.8401489257815	393.8668823242189	923.0005493164065	-911.751892089844	468.8150939941407	927.065856933594	-826.136169433594	-85.94552612304689	1076.921875	-589.1820068359376	-24.27058219909669	974.3022460937502	-478.4146728515626	18.35198783874512	987.8730468750002	-495.7084350585939	32.52855300903321	935.5139770507815	-470.2443237304689	121.3347778320313	904.2342529296877	-467.5123596191407	112.6648406982422	850.545349121094	-530.4559326171876	385.2868652343751	926.7840576171877	-512.3094482421876	465.3634033203126	940.2724609375002	-590.4696044921876	-366.9819641113282	693.6744995117189	-855.9572753906252	-360.0699462890626	738.4943237304689	-618.4544677734376	-496.8825683593751	848.476013183594	-744.6225585937501	-520.0870971679689	823.8906860351565	-768.0159301757815	-525.3403930664064	835.156921386719	-712.3867797851564	-416.7136230468751	394.2634582519532	-889.5504150390627	-378.8846130371094	320.6265563964844	-865.7141113281252	-339.2545471191407	327.8322143554688	-837.422790527344	-409.1686096191407	270.5002746582032	-853.6496582031252	-419.8269958496095	228.1566619873047	-852.9182128906252	-593.3422241210939	170.6950836181641	-806.5193481445315	-628.1480102539064	222.1519927978516	-867.3916625976565	-637.2203369140626	186.2599334716797	-843.397399902344	-717.5527343750001	192.3714904785157	-816.781677246094	-830.2620239257815	255.3191528320313	-857.659118652344	-811.126892089844	252.8128967285157	-770.0634765625002	-852.947937011719	323.5116577148438	-823.8200683593752	-897.7082519531252	111.6937255859375	-757.5807495117189	-895.749694824219	103.9159698486328	-795.2507324218752	-914.0913696289065	134.9588470458985	-852.7917480468752	-336.8462524414063	598.7129516601564	-546.7677612304689	-271.7528686523438	591.7116088867189	-559.4183959960939	-252.8947143554688	617.5288085937501	-567.9703979492189	-231.9173126220704	521.3463134765626	-581.3424682617189	-135.6328887939453	436.9759216308595	-628.5439453125001	-147.4046936035157	445.099334716797	-752.9421997070314	-170.6022186279297	295.8143310546876	-735.2624511718751	-222.5408477783204	226.6915283203126	-670.4382934570314	-208.6475219726563	220.1893920898438	-714.8878784179689	-252.8581085205079	196.3406219482422	-746.0924682617189	-350.0593566894532	94.18496704101564	-690.0294799804689	-343.3214416503907	126.7084121704102	-776.6939697265627	-430.179168701172	81.76434326171876	-744.2911376953126	-205.7318572998047	55.21395874023439	-761.4193115234376	-205.8610839843751	51.93839263916017	-720.0089111328126	-248.5103759765626	35.03248977661134	-671.3004150390626	-433.4676208496095	236.8497924804688	-715.7980346679689	374.0418701171876	919.434997558594	-585.8673706054689	
